<?xml version="1.0" encoding="UTF-8" standalone="no"?>
<svg width="86px" height="180px" viewBox="0 0 86 180" version="1.1" xmlns="http://www.w3.org/2000/svg" xmlns:xlink="http://www.w3.org/1999/xlink">
    <defs></defs>
    <g id="Landing-Page" stroke="none" stroke-width="1" fill="none" fill-rule="evenodd">
        <g id="Desktop" transform="translate(-466.000000, -90.000000)">
            <g id="Top-v.2">
                <g id="Logo" transform="translate(407.000000, 90.000000)">
                    <g id="Horizontal" transform="translate(59.000000, 0.000000)">
                        <path d="M75.0204002,129.368201 L75.0204002,138.340919 L83.865367,138.340919 L83.865367,140.014198 L75.0204002,140.014198 L75.0204002,148.98737 L73.1912968,148.98737 L73.1912968,127.694921 L86,127.694921 L86,129.368201 L75.0204002,129.368201 L75.0204002,129.368201 Z M80.5099738,111.57026 L80.5099738,118.565177 L78.6808703,118.565177 L78.6808703,111.57026 L76.2416131,111.57026 L73.1912968,108.527768 L73.1912968,97.2727273 L75.0204002,97.2727273 L75.0204002,108.010399 L76.9115149,109.89698 L82.1878967,109.89698 L84.1708965,107.919179 L84.1708965,97.2727273 L86,97.2727273 L86,108.436094 L82.8577985,111.57026 L80.5099738,111.57026 L80.5099738,111.57026 Z M76.3665407,178.32672 L81.7348077,178.32672 L83.6259224,176.440593 L83.6259224,170.630632 L81.7348077,168.744505 L73.5624586,168.744505 L73.5624586,158.70755 L85.4550258,158.70755 L85.4550258,160.38083 L75.391562,160.38083 L75.391562,167.071226 L82.4051622,167.071226 L85.4550258,170.113717 L85.4550258,176.957508 L82.4051622,180 L75.6966389,180 L72.6463226,176.957508 L73.8055243,175.801597 L76.3665407,178.32672 L76.3665407,178.32672 Z M54.3480458,178.32672 L59.8376193,178.32672 L59.8376193,160.38083 L58.0682639,160.38083 L55.5067948,162.934998 L54.3480458,161.749588 L57.3979095,158.70755 L61.6667228,158.70755 L61.6667228,178.32672 L67.156749,178.32672 L67.156749,180 L54.3480458,180 L54.3480458,178.32672 L54.3480458,178.32672 Z M50.6242066,131.588348 L50.6242066,148.98737 L48.7951031,148.98737 L48.7951031,127.694921 L50.6540806,127.694921 L59.7747029,145.123442 L59.7747029,127.694921 L61.6038064,127.694921 L61.6038064,148.98737 L59.7126917,148.98737 L50.6242066,131.588348 L50.6242066,131.588348 Z M48.7951031,118.565177 L48.7951031,97.2727273 L58.55349,97.2727273 L61.6038064,100.314765 L61.6038064,104.421493 L59.3772882,106.641641 L61.6038064,108.83229 L61.6038064,115.523139 L58.55349,118.565177 L48.7951031,118.565177 L48.7951031,118.565177 Z M59.7747029,103.904125 L59.7747029,100.832134 L57.8835882,98.9460069 L50.6242066,98.9460069 L50.6242066,105.790252 L57.8835882,105.790252 L59.7747029,103.904125 L59.7747029,103.904125 Z M59.7747029,109.349658 L57.8835882,107.463531 L50.6242066,107.463531 L50.6242066,116.891897 L57.8835882,116.891897 L59.7747029,115.00577 L59.7747029,109.349658 L59.7747029,109.349658 Z M46.542332,159.951959 L48.0776745,158.70755 L48.0776745,163.301695 L46.542332,163.301695 L46.542332,159.951959 L46.542332,159.951959 Z M27.4487731,148.98737 L24.3984568,145.945333 L24.3984568,130.736959 L27.4487731,127.694921 L34.1572964,127.694921 L37.2071601,130.736959 L37.2071601,145.945333 L34.1572964,148.98737 L27.4487731,148.98737 L27.4487731,148.98737 Z M35.3780566,131.254328 L33.486942,129.368201 L28.1191276,129.368201 L26.2275603,131.254328 L26.2275603,145.427964 L28.1191276,147.314091 L33.486942,147.314091 L35.3780566,145.427964 L35.3780566,131.254328 L35.3780566,131.254328 Z M27.44651,118.565177 L24.3984568,115.523139 L24.3984568,97.2727273 L26.2275603,97.2727273 L26.2275603,115.00577 L28.1191276,116.891897 L33.486942,116.891897 L35.3780566,115.00577 L35.3780566,97.2727273 L37.2048969,97.2727273 L37.2048969,115.523139 L34.1572964,118.565177 L27.44651,118.565177 L27.44651,118.565177 Z M32.406499,160.38083 L26.9164728,160.38083 L26.9164728,180 L25.0873693,180 L25.0873693,160.38083 L19.5977958,160.38083 L19.5977958,158.70755 L32.406499,158.70755 L32.406499,160.38083 L32.406499,160.38083 Z M1.77635684e-15,176.957508 L1.77635684e-15,158.70755 L1.82910346,158.70755 L1.82910346,176.440593 L3.72021811,178.32672 L12.8087032,178.32672 L12.8087032,180 L3.04986368,180 L1.77635684e-15,176.957508 L1.77635684e-15,176.957508 Z M3.72021811,147.314091 L9.08848514,147.314091 L11.6196276,144.789422 L12.8087032,145.945333 L9.75838693,148.98737 L3.04986368,148.98737 L1.77635684e-15,145.945333 L1.77635684e-15,130.736959 L3.04986368,127.694921 L9.75838693,127.694921 L12.8087032,130.736959 L11.6196276,131.922369 L9.08848514,129.368201 L3.72021811,129.368201 L1.82910346,131.254328 L1.82910346,145.427964 L3.72021811,147.314091 L3.72021811,147.314091 Z M10.9175886,118.565177 L6.130054,109.379157 L1.82910346,112.968517 L1.82910346,118.565177 L1.77635684e-15,118.565177 L1.77635684e-15,97.2727273 L9.75838693,97.2727273 L12.8087032,100.314765 L12.8087032,103.540151 L7.44043622,108.163795 L12.8087032,118.565177 L10.9175886,118.565177 L10.9175886,118.565177 Z M10.9795998,103.022782 L10.9795998,100.832134 L9.08848514,98.9460069 L1.82910346,98.9460069 L1.82910346,110.686194 L10.9795998,103.022782 L10.9795998,103.022782 Z" id="path-1" fill="#FFFFFF"></path>
                        <path d="M64.4998868,0 L21.5001132,0 L0,21.5700829 L0,35.9502895 L43.0002263,79.0909091 L86,35.9502895 L86,21.5700829 L64.4998868,0 L64.4998868,0 Z" id="path-1" fill="#EB4951"></path>
                        <path d="M64.3464375,28.6056994 L57.3334842,23.3885359 L50.3209836,28.6056994 L55.5215142,21.5700829 L50.3209836,14.5344665 L57.3334842,19.7520837 L64.3464375,14.5344665 L59.1459069,21.5700829 L64.3464375,28.6056994 L64.3464375,28.6056994 Z" id="path-1-path" fill="#FFFFFF"></path>
                    </g>
                </g>
            </g>
        </g>
    </g>
</svg>